<?xml version="1.0" encoding="UTF-8"?>
<svg xmlns="http://www.w3.org/2000/svg" version="1.1" xmlns:inkscape="http://www.inkscape.org/namespaces/inkscape" xmlns:sodipodi="http://sodipodi.sourceforge.net/DTD/sodipodi-0.dtd" xmlns:svg="http://www.w3.org/2000/svg" viewBox="0 0 328.58 137.03">
  <!-- Generator: Adobe Illustrator 29.4.0, SVG Export Plug-In . SVG Version: 2.1.0 Build 152)  -->
  <defs>
    <style>
      .st0 {
        opacity: .9;
      }

      .st1 {
        fill: #fff;
      }

      .st2 {
        fill: #e5e9f0;
      }

      .st3 {
        fill: #ebcb8b;
      }

      .st4 {
        fill: #bf616a;
      }

      .st5 {
        fill: #512e00;
      }
    </style>
  </defs>
  <g id="svg5" inkscape:export-xdpi="96" inkscape:export-ydpi="96">
    <sodipodi:namedview id="namedview7" bordercolor="#666666" borderopacity="1.0" fit-margin-bottom="0" fit-margin-left="0" fit-margin-right="0" fit-margin-top="0" inkscape:current-layer="g41233" inkscape:cx="91.570329" inkscape:cy="134.17351" inkscape:deskcolor="#d1d1d1" inkscape:document-units="px" inkscape:pagecheckerboard="0" inkscape:pageopacity="0.0" inkscape:pageshadow="2" inkscape:showpageshadow="2" inkscape:window-height="1000" inkscape:window-maximized="0" inkscape:window-width="1350" inkscape:window-x="524" inkscape:window-y="58" inkscape:zoom="2.8284271" pagecolor="#ffffff" scale-x="2" showgrid="false"/>
    <g id="layer1" inkscape:groupmode="layer" inkscape:label="Layer 1">
      <g id="text3267">
        <path id="path13" class="st2" d="M0,92.4V3.33h18.4v50.93l23.2-24.53h21.2l-24.53,25.33,25.87,37.33h-21.47l-16.8-24.53-7.47,7.87v16.67H0Z"/>
        <path id="path15" class="st2" d="M73.87,92.4V29.73h18.4v62.67h-18.4ZM83.07,20.13c-3.29,0-5.87-.93-7.73-2.8-1.87-1.96-2.8-4.4-2.8-7.33s.93-5.33,2.8-7.2C77.2.93,79.78,0,83.07,0s5.73.98,7.6,2.93c1.96,1.87,2.93,4.27,2.93,7.2,0,2.93-.98,5.33-2.93,7.2-1.87,1.87-4.4,2.8-7.6,2.8Z"/>
        <path id="path17" class="st2" d="M108.27,92.4V3.33h18.4v50.93l23.2-24.53h21.2l-24.53,25.33,25.87,37.33h-21.47l-16.8-24.53-7.47,7.87v16.67h-18.4Z"/>
        <path id="path19" class="st2" d="M182.13,92.4V29.73h18.4v62.67h-18.4ZM191.33,20.13c-3.29,0-5.87-.93-7.73-2.8-1.87-1.96-2.8-4.4-2.8-7.33,0-2.93.93-5.33,2.8-7.2C185.47.93,188.04,0,191.33,0s5.73.98,7.6,2.93c1.96,1.87,2.93,4.27,2.93,7.2,0,2.93-.98,5.33-2.93,7.2-1.87,1.87-4.4,2.8-7.6,2.8Z"/>
      </g>
    </g>
    <g id="layer2" inkscape:groupmode="layer" inkscape:label="Layer 2">
      <g id="g41233">
        <path id="rect16782" class="st4" d="M158.87,52.76l163.5-12.05,6.21,84.27-163.5,12.05-6.21-84.27Z"/>
        <g id="text18382" class="st0">
          <path id="path23" class="st1" d="M186.67,129.48l-4.04-54.87,9.26-.68.42,5.72c1.09-2.05,2.71-3.75,4.87-5.1,2.15-1.4,4.8-2.22,7.94-2.45,3.59-.26,6.88.34,9.86,1.81,2.98,1.42,5.4,3.61,7.25,6.57,1.91,2.96,3.02,6.57,3.34,10.84s-.26,8-1.71,11.21c-1.4,3.21-3.47,5.76-6.21,7.65-2.74,1.84-5.91,2.89-9.5,3.15-2.97.22-5.59-.12-7.86-1.03-2.27-.9-4.11-2.21-5.53-3.91l1.5,20.37-9.59.71ZM205.44,105.17c2.19-.16,4.09-.81,5.7-1.94,1.61-1.13,2.82-2.66,3.64-4.58.82-1.92,1.14-4.12.95-6.59s-.82-4.65-1.91-6.37c-1.09-1.78-2.51-3.11-4.27-4-1.76-.89-3.73-1.25-5.92-1.09s-4.09.81-5.7,1.94c-1.61,1.13-2.82,2.66-3.64,4.58-.82,1.87-1.14,4.06-.95,6.59s.79,4.6,1.82,6.38c1.09,1.78,2.51,3.11,4.27,4,1.81.88,3.81,1.24,6,1.08h0Z"/>
          <path id="path25" class="st1" d="M236.38,110.42l-2.91-39.56,9.26-.68.4,5.39c1.04-1.99,2.58-3.63,4.63-4.91,2.05-1.28,4.62-2.03,7.7-2.26,4.54-.33,8.17.7,10.89,3.09,2.77,2.39,4.35,6.28,4.75,11.67l1.81,24.57-9.59.71-1.7-23.14c-.22-3.03-1.03-5.23-2.43-6.59-1.34-1.37-3.3-1.96-5.88-1.77-3.03.22-5.34,1.44-6.92,3.64-1.53,2.14-2.17,5.04-1.9,8.69l1.51,20.45-9.59.71Z"/>
          <path id="path27" class="st1" d="M299.79,106.26c-4.49.33-7.85-.44-10.07-2.3-2.22-1.87-3.49-4.93-3.81-9.2l-1.44-19.53-8.42.62-.6-8.08,8.42-.62-.83-11.28,9.68-.71.83,11.28,9.93-.73.6,8.08-9.93.73,1.38,18.68c.13,1.74.67,3.02,1.64,3.86.96.78,2.34,1.1,4.13.96.67-.05,1.46-.14,2.35-.26.95-.13,1.67-.26,2.17-.41l.56,7.66c-.77.28-1.77.53-2.99.73-1.17.26-2.37.43-3.6.52h0Z"/>
        </g>
      </g>
    </g>
    <rect class="st3" x="265.58" y="3.32" width="57.4" height="57.4" transform="translate(6.18 -36) rotate(7.08)"/>
    <path class="st5" d="M288.08,48.52l1.53-12.36-12.15-1.51,1.03-8.29,12.15,1.51,1.53-12.36,8.72,1.08-1.53,12.36,12.15,1.51-1.03,8.29-12.15-1.51-1.53,12.36-8.72-1.08Z"/>
  </g>
</svg>