<?xml version="1.0" encoding="UTF-8" standalone="no"?>
<!-- Created with Inkscape (http://www.inkscape.org/) -->

<svg
   width="328.58075"
   height="137.02605"
   viewBox="0 0 1314.323 548.1042"
   version="1.1"
   id="svg5"
   inkscape:version="1.2.2 (732a01da63, 2022-12-09)"
   sodipodi:docname="kikipnt.svg"
   inkscape:export-filename="kikipnt.png"
   inkscape:export-xdpi="96"
   inkscape:export-ydpi="96"
   xmlns:inkscape="http://www.inkscape.org/namespaces/inkscape"
   xmlns:sodipodi="http://sodipodi.sourceforge.net/DTD/sodipodi-0.dtd"
   xmlns="http://www.w3.org/2000/svg"
   xmlns:svg="http://www.w3.org/2000/svg">
  <sodipodi:namedview
     id="namedview7"
     pagecolor="#ffffff"
     bordercolor="#666666"
     borderopacity="1.0"
     inkscape:pageshadow="2"
     inkscape:pageopacity="0.0"
     inkscape:pagecheckerboard="0"
     inkscape:document-units="px"
     showgrid="false"
     inkscape:zoom="2.8284271"
     inkscape:cx="91.570329"
     inkscape:cy="134.17351"
     inkscape:window-width="1350"
     inkscape:window-height="1000"
     inkscape:window-x="524"
     inkscape:window-y="58"
     inkscape:window-maximized="0"
     inkscape:current-layer="g41233"
     scale-x="2"
     fit-margin-top="0"
     fit-margin-left="0"
     fit-margin-right="0"
     fit-margin-bottom="0"
     inkscape:showpageshadow="2"
     inkscape:deskcolor="#d1d1d1" />
  <defs
     id="defs2" />
  <g
     inkscape:label="Layer 1"
     inkscape:groupmode="layer"
     id="layer1"
     transform="translate(4.5776367e-7,1.2451172e-5)">
    <g
       aria-label="kiki"
       id="text3267"
       style="font-size:533.333px;line-height:1.25;fill:#434c5e;stroke-width:12.964;fill-opacity:1">
      <path
         d="M -4.5776367e-7,369.59976 V 13.333313 H 73.599955 V 217.06652 L 166.3999,118.93325 h 84.79995 L 153.06657,220.26652 256.53318,369.59976 H 170.66656 L 103.4666,271.46649 73.599955,302.93314 v 66.66662 z"
         style="font-weight:bold;font-family:Gantari;-inkscape-font-specification:'Gantari Bold';fill:#434c5e;fill-opacity:1"
         id="path13" />
      <path
         d="M 295.46591,369.59976 V 118.93325 h 73.59996 V 369.59976 Z M 332.26589,80.533272 q -19.73332,0 -30.93332,-11.199993 -11.19999,-11.733327 -11.19999,-29.333316 0,-17.599989 11.19999,-28.799982 11.2,-11.199993451172 30.93332,-11.199993451172 19.19999,0 30.39998,11.733326451172 11.73333,11.199993 11.73333,28.799982 0,17.599989 -11.73333,28.799983 -11.19999,11.199993 -30.39998,11.199993 z"
         style="font-weight:bold;font-family:Gantari;-inkscape-font-specification:'Gantari Bold';fill:#434c5e;fill-opacity:1"
         id="path15" />
      <path
         d="M 433.06552,369.59976 V 13.333313 h 73.59996 V 217.06652 l 92.79994,-98.13327 h 84.79995 L 586.13209,220.26652 689.5987,369.59976 h -85.86662 l -67.19996,-98.13327 -29.86664,31.46665 v 66.66662 z"
         style="font-weight:bold;font-family:Gantari;-inkscape-font-specification:'Gantari Bold';fill:#434c5e;fill-opacity:1"
         id="path17" />
      <path
         d="M 728.53143,369.59976 V 118.93325 h 73.59996 V 369.59976 Z M 765.33141,80.533272 q -19.73332,0 -30.93331,-11.199993 -11.2,-11.733327 -11.2,-29.333316 0,-17.599989 11.2,-28.799982 11.19999,-11.199993451172 30.93331,-11.199993451172 19.19999,0 30.39998,11.733326451172 11.73333,11.199993 11.73333,28.799982 0,17.599989 -11.73333,28.799983 -11.19999,11.199993 -30.39998,11.199993 z"
         style="font-weight:bold;font-family:Gantari;-inkscape-font-specification:'Gantari Bold';fill:#434c5e;fill-opacity:1"
         id="path19" />
    </g>
  </g>
  <g
     inkscape:groupmode="layer"
     id="layer2"
     inkscape:label="Layer 2"
     transform="translate(4.5776367e-7,1.2451172e-5)">
    <g
       id="g41233"
       transform="rotate(-4.2132708,-4878.8214,2484.0292)">
      <path
         id="rect16782"
         style="fill:#5e81ac;stroke-width:0.924772;fill-opacity:1"
         d="M 787.56445,622.29736 H 1443.3566 V 960.29105 H 787.56445 Z" />
      <g
         aria-label="pnt"
         id="text18382"
         style="font-size:337.551px;line-height:1.25;fill:#d7e3f4;stroke-width:1.75808">
        <path
           d="M 875.93436,936.54201 V 716.45876 h 37.13061 v 22.95347 q 7.42612,-11.81429 20.92816,-18.90286 13.50204,-7.42612 32.4049,-7.42612 21.60326,0 38.81837,10.12653 17.2151,9.78898 27.0041,28.35428 10.1265,18.56531 10.1265,44.21918 0,25.65388 -10.1265,44.21918 -9.789,18.56531 -27.0041,28.69184 -17.21511,9.78898 -38.81837,9.78898 -17.8902,0 -31.05469,-6.41347 -13.16449,-6.41347 -20.92816,-17.2151 v 81.68734 z m 82.0249,-91.47632 q 13.16448,0 23.29101,-6.07592 10.12653,-6.07592 15.8649,-17.2151 5.73833,-11.13918 5.73833,-25.99143 0,-15.18979 -5.73833,-25.99142 -5.73837,-11.13919 -15.8649,-17.2151 -10.12653,-6.07592 -23.29101,-6.07592 -13.16449,0 -23.29102,6.07592 -10.12653,6.07591 -15.8649,17.2151 -5.73837,10.80163 -5.73837,25.99142 0,14.85225 5.40082,25.99143 5.73837,11.13918 15.8649,17.2151 10.46408,6.07592 23.62857,6.07592 z"
           style="font-weight:600;font-family:Gantari;-inkscape-font-specification:'Gantari Semi-Bold'"
           id="path23" />
        <path
           d="M 1079.8146,875.10773 V 716.45876 h 37.1306 v 21.60326 q 7.0885,-11.47673 19.9155,-18.22775 12.8269,-6.75102 31.3922,-6.75102 27.3416,0 42.5314,15.52735 15.5274,15.52734 15.5274,47.93224 v 98.56489 h -38.4808 V 782.2812 q 0,-18.22775 -7.7637,-27.00408 -7.4261,-8.77632 -22.9535,-8.77632 -18.2277,0 -28.6918,12.48938 -10.1265,12.15184 -10.1265,34.09266 v 82.02489 z"
           style="font-weight:600;font-family:Gantari;-inkscape-font-specification:'Gantari Semi-Bold'"
           id="path25" />
        <path
           d="m 1333.9896,877.13303 q -27.004,0 -39.4934,-12.15183 -12.4894,-12.15184 -12.4894,-37.80571 v -78.31184 h -33.7551 v -32.40489 h 33.7551 v -45.23183 h 38.8184 v 45.23183 h 39.831 v 32.40489 h -39.831 v 74.93633 q 0,10.46408 5.4008,15.86489 5.4008,5.06327 16.2024,5.06327 4.0506,0 9.4514,-0.33755 5.7384,-0.33755 8.7764,-1.01266 v 30.71714 q -4.7257,1.35021 -12.1519,2.02531 -7.0885,1.01265 -14.5147,1.01265 z"
           style="font-weight:600;font-family:Gantari;-inkscape-font-specification:'Gantari Semi-Bold'"
           id="path27" />
      </g>
    </g>
  </g>
</svg>
