<?xml version="1.0" encoding="UTF-8" standalone="no"?>
<!-- Created with Inkscape (http://www.inkscape.org/) -->

<svg
   width="90.477654"
   height="90.477646"
   viewBox="0 0 361.91061 361.91059"
   version="1.1"
   id="svg5"
   inkscape:version="1.2.2 (732a01da63, 2022-12-09)"
   sodipodi:docname="kikipnt_favicon.svg"
   inkscape:export-filename="kikipnt_favicon.png"
   inkscape:export-xdpi="96"
   inkscape:export-ydpi="96"
   xmlns:inkscape="http://www.inkscape.org/namespaces/inkscape"
   xmlns:sodipodi="http://sodipodi.sourceforge.net/DTD/sodipodi-0.dtd"
   xmlns="http://www.w3.org/2000/svg"
   xmlns:svg="http://www.w3.org/2000/svg">
  <sodipodi:namedview
     id="namedview7"
     pagecolor="#ffffff"
     bordercolor="#666666"
     borderopacity="1.0"
     inkscape:pageshadow="2"
     inkscape:pageopacity="0.0"
     inkscape:pagecheckerboard="0"
     inkscape:document-units="px"
     showgrid="false"
     inkscape:zoom="4"
     inkscape:cx="9.75"
     inkscape:cy="61"
     inkscape:window-width="1920"
     inkscape:window-height="1009"
     inkscape:window-x="-8"
     inkscape:window-y="-8"
     inkscape:window-maximized="1"
     inkscape:current-layer="g41233"
     scale-x="2"
     fit-margin-top="0"
     fit-margin-left="0"
     fit-margin-right="0"
     fit-margin-bottom="0"
     inkscape:showpageshadow="2"
     inkscape:deskcolor="#d1d1d1" />
  <defs
     id="defs2" />
  <g
     inkscape:groupmode="layer"
     id="layer2"
     inkscape:label="Layer 2"
     transform="translate(-5.0265758e-5,-23.348502)">
    <g
       id="g41233"
       transform="rotate(-4.2132708,-7410.0476,11040.409)">
      <path
         id="rect16782"
         style="fill:#5e81ac;stroke-width:0.663902;fill-opacity:1"
         d="m 787.56445,622.29736 h 337.99205 v 337.992 H 787.56445 Z" />
      <g
         aria-label="pnt"
         id="text18382"
         style="font-size:337.551px;line-height:1.25;fill:#d7e3f4;stroke-width:1.75808">
        <path
           d="M 875.93436,936.54201 V 716.45876 h 37.13061 v 22.95347 q 7.42612,-11.81429 20.92816,-18.90286 13.50204,-7.42612 32.4049,-7.42612 21.60326,0 38.81837,10.12653 17.2151,9.78898 27.0041,28.35428 10.1265,18.56531 10.1265,44.21918 0,25.65388 -10.1265,44.21918 -9.789,18.56531 -27.0041,28.69184 -17.21511,9.78898 -38.81837,9.78898 -17.8902,0 -31.05469,-6.41347 -13.16449,-6.41347 -20.92816,-17.2151 v 81.68734 z m 82.0249,-91.47632 q 13.16448,0 23.29101,-6.07592 10.12653,-6.07592 15.8649,-17.2151 5.73833,-11.13918 5.73833,-25.99143 0,-15.18979 -5.73833,-25.99142 -5.73837,-11.13919 -15.8649,-17.2151 -10.12653,-6.07592 -23.29101,-6.07592 -13.16449,0 -23.29102,6.07592 -10.12653,6.07591 -15.8649,17.2151 -5.73837,10.80163 -5.73837,25.99142 0,14.85225 5.40082,25.99143 5.73837,11.13918 15.8649,17.2151 10.46408,6.07592 23.62857,6.07592 z"
           style="font-weight:600;font-family:Gantari;-inkscape-font-specification:'Gantari Semi-Bold'"
           id="path23" />
      </g>
    </g>
  </g>
</svg>
