<?xml version="1.0" encoding="UTF-8"?>
<svg xmlns="http://www.w3.org/2000/svg" version="1.1" xmlns:inkscape="http://www.inkscape.org/namespaces/inkscape" xmlns:sodipodi="http://sodipodi.sourceforge.net/DTD/sodipodi-0.dtd" xmlns:svg="http://www.w3.org/2000/svg" viewBox="0 0 90.48 90.48">
  <!-- Generator: Adobe Illustrator 29.4.0, SVG Export Plug-In . SVG Version: 2.1.0 Build 152)  -->
  <defs>
    <style>
      .st0 {
        opacity: .9;
      }

      .st1 {
        fill: #fff;
      }

      .st2 {
        fill: #bf616a;
      }
    </style>
  </defs>
  <g id="svg5" inkscape:export-xdpi="96" inkscape:export-ydpi="96">
    <sodipodi:namedview id="namedview7" bordercolor="#666666" borderopacity="1.0" fit-margin-bottom="0" fit-margin-left="0" fit-margin-right="0" fit-margin-top="0" inkscape:current-layer="g41233" inkscape:cx="9.75" inkscape:cy="61" inkscape:deskcolor="#d1d1d1" inkscape:document-units="px" inkscape:pagecheckerboard="0" inkscape:pageopacity="0.0" inkscape:pageshadow="2" inkscape:showpageshadow="2" inkscape:window-height="1009" inkscape:window-maximized="1" inkscape:window-width="1920" inkscape:window-x="-8" inkscape:window-y="-8" inkscape:zoom="4" pagecolor="#ffffff" scale-x="2" showgrid="false"/>
    <g id="layer2" inkscape:groupmode="layer" inkscape:label="Layer 2">
      <g id="g41233">
        <path id="rect16782" class="st2" d="M0,6.21L84.27,0l6.21,84.27-84.27,6.21L0,6.21Z"/>
        <g id="text18382" class="st0">
          <path id="path23" class="st1" d="M27.8,82.93l-4.04-54.87,9.26-.68.42,5.72c1.09-2.05,2.71-3.75,4.87-5.1,2.15-1.4,4.8-2.22,7.94-2.45,3.59-.26,6.88.34,9.86,1.81,2.98,1.42,5.4,3.61,7.25,6.57,1.91,2.96,3.02,6.57,3.34,10.84s-.26,8-1.71,11.21c-1.4,3.21-3.47,5.76-6.21,7.65-2.74,1.84-5.91,2.89-9.5,3.15-2.97.22-5.59-.12-7.86-1.03-2.27-.9-4.11-2.21-5.53-3.91l1.5,20.37-9.59.71ZM46.58,58.62c2.19-.16,4.09-.81,5.7-1.94,1.61-1.13,2.82-2.66,3.64-4.58.82-1.92,1.14-4.12.95-6.59s-.82-4.65-1.91-6.37c-1.09-1.78-2.51-3.11-4.27-4-1.76-.89-3.73-1.25-5.92-1.09s-4.09.81-5.7,1.94c-1.61,1.13-2.82,2.66-3.64,4.58-.82,1.87-1.14,4.06-.95,6.59s.79,4.6,1.82,6.38c1.09,1.78,2.51,3.11,4.27,4,1.81.88,3.81,1.24,6,1.08h0Z"/>
        </g>
      </g>
    </g>
  </g>
</svg>